<?xml version="1.0" encoding="utf-8"?>
<!-- Generator: Adobe Illustrator 23.0.2, SVG Export Plug-In . SVG Version: 6.00 Build 0)  -->
<svg version="1.1" id="Layer_1" xmlns="http://www.w3.org/2000/svg" xmlns:xlink="http://www.w3.org/1999/xlink" x="0px" y="0px"
	 viewBox="0 0 979.8 596.4" style="enable-background:new 0 0 979.8 596.4;" xml:space="preserve">
<style type="text/css">
	.st0{fill:none;stroke:#231F20;stroke-width:14;stroke-miterlimit:10;}
</style>
<path class="st0" d="M49.41,543.29
  c9.37, -9.37,98.34, -124.68,131.71, -299.12
  s2.49-208.37-18.07-205.75
	c-20.56,2.63,-54.51,121.7,-53.34,247.72
  C110.88,412.17,122,527.49,122,527.49
  s-10.54,-182.63,76.68-185.56
	C285.9,339,260.13,545.9,350.86,534.25
  c90.73,-11.65,110.55,-144.04,107.97-169.35
  c-2.58,-25.31,23.17,5.13,63.56,6.3
	c40.39,1.17,65.36,-24.67,74.93,-15.22
  S556.34,528.54,650,533.87
  s167.48,-87.68,166.83,-162.67
  c0.79,125.33,47.02,153.27,107.71,162.67"
	/>
</svg>
