<?xml version="1.0" encoding="utf-8"?>
<!-- Generator: Adobe Illustrator 23.0.2, SVG Export Plug-In . SVG Version: 6.00 Build 0)  -->
<svg version="1.1" id="Layer_1" xmlns="http://www.w3.org/2000/svg" xmlns:xlink="http://www.w3.org/1999/xlink" x="0px" y="0px"
	 viewBox="0 0 979.8 596.4" style="enable-background:new 0 0 979.8 596.4;" xml:space="preserve">
<style type="text/css">
	.st0{fill:none;stroke:#231F20;stroke-width:14;stroke-linecap:round;stroke-linejoin:round;stroke-miterlimit:10;}
	.st1{fill:none;stroke:#231F20;stroke-width:14;stroke-miterlimit:10;}
</style>
<path class="st0" d="M49.41,543.29c77.67-230.21,115.32-303.03,131.71-299.12c36.04,8.6,19.79,282,28.25,282.24
	c7.51,0.21-15.17-200.75,83.6-267.51c49.92-33.74,116.95-23.79,169.35-8.09c-52.04,27.92-83.65,81.07-80.9,135.91
	c3.34,66.66,57.32,133.85,131.6,134.29c77.85,0.46,129.92-72.69,133.21-134.83c3.73-70.5-54.57-140.95-87.37-134.83
	c-21,3.92-40.55,40.92-30.74,62.02c31.1,66.94,371.79,4.84,373.21-44.76c0.76-26.59-95.44-68.74-152.09-35.6
	c-17.67,10.34-42.55,34.47-40.45,62.02c5.37,70.57,181.11,76.93,189.84,149.39c4.11,34.16-30.24,71.72-66.88,83.6
	c-42.82,13.89-94.35-5.5-125.12-50.16"/>
<path class="st1" d="M190.49-29.2"/>
<path class="st1" d="M261.32,153.44"/>
<path class="st1" d="M713.1,403.45"/>
<path class="st0" d="M323.71,645.61"/>
</svg>
