<?xml version="1.0" encoding="utf-8"?>
<!-- Generator: Adobe Illustrator 23.0.2, SVG Export Plug-In . SVG Version: 6.00 Build 0)  -->
<svg version="1.1" id="Layer_1" xmlns="http://www.w3.org/2000/svg" xmlns:xlink="http://www.w3.org/1999/xlink" x="0px" y="0px"
	 viewBox="0 0 979.8 596.4" style="enable-background:new 0 0 979.8 596.4;" xml:space="preserve">
<style type="text/css">
	.st0{fill:none;stroke:#868686;stroke-width:8;stroke-miterlimit:10;}
</style>
<path class="st0" d="M49.41,543.29c9.37-9.37,98.34-124.68,131.71-299.12s2.49-208.37-18.07-205.75
	c-19.85,2.54-60.24,121.65-53.34,247.72c6.45,117.99,55,251.88,106.19,252.9c42.93,0.85,46.77-92.55,153.27-160.82
	c54.85-35.16,112.93-48.27,115.32-43.32c1.96,4.06-35.39,16.17-62.05,52.1c-34.52,46.53-43.27,122.4-14.63,141.66
	c24.73,16.64,77-9.2,107.71-42.15c55.63-59.71,47.88-150.76,53.27-150.44c7.25,0.43-20.22,162.52,21.07,180.29
	c41.87,18.02,164.97-107.82,193.17-259.32c19.89-106.87-9.05-217.81-29.27-218.34c-21.18-0.56-43,124.66-46.24,223.02
	c-2.79,84.63-7.69,232.8,58.54,258.73c42.25,16.55,113.66-16.59,132.29-74.93c17.8-55.73-15.71-124.65-83.12-149.85"/>
</svg>
