<svg width="677.401" height="112.802" viewBox="0 0 677.401 112.802" xmlns="http://www.w3.org/2000/svg"><g id="svgGroup" stroke-linecap="round" fill-rule="evenodd" font-size="9pt" stroke="#000" stroke-width="0.25mm" fill="#000" style="stroke:#000;stroke-width:0.25mm;fill:#000"><path d="M 46.2 111 L 28.5 111 L 0 9.45 L 14.1 4.95 L 37.8 95.85 L 60.15 16.95 L 78 16.95 L 100.2 95.85 L 123.75 5.4 L 136.95 9.45 L 108.6 111 L 90.9 111 L 68.7 32.1 L 46.2 111 Z M 450.45 111 L 436.95 111 L 436.95 33 L 450 33 L 450 46.05 Q 454.2 39.75 460.65 35.475 A 25.808 25.808 0 0 1 474.453 31.213 A 31.287 31.287 0 0 1 475.35 31.2 A 31.491 31.491 0 0 1 481.976 31.859 Q 486.455 32.823 489.878 35.194 A 19.691 19.691 0 0 1 490.575 35.7 Q 496.5 40.2 498.9 47.7 Q 503.55 40.8 509.925 36 A 23.503 23.503 0 0 1 520.111 31.675 A 32.169 32.169 0 0 1 525.75 31.2 A 32.155 32.155 0 0 1 533.082 31.984 Q 538.461 33.243 542.194 36.526 A 19.491 19.491 0 0 1 544.725 39.225 Q 550.95 47.25 550.95 60.15 L 550.95 111 L 537.45 111 L 537.45 61.2 Q 537.45 53.1 533.7 48.075 A 11.961 11.961 0 0 0 524.98 43.131 A 16.017 16.017 0 0 0 523.35 43.05 A 17.889 17.889 0 0 0 513.211 46.241 A 23.994 23.994 0 0 0 510.825 48.075 Q 505.05 53.1 500.7 59.85 L 500.7 111 L 487.2 111 L 487.2 61.2 Q 487.2 53.1 483.45 48.075 A 11.961 11.961 0 0 0 474.73 43.131 A 16.017 16.017 0 0 0 473.1 43.05 A 18.03 18.03 0 0 0 463.622 45.792 A 24.366 24.366 0 0 0 460.65 47.925 Q 454.8 52.8 450.45 59.4 L 450.45 111 Z M 209.85 77.55 L 155.25 77.55 A 36.132 36.132 0 0 0 156.959 85.087 Q 158.962 90.806 162.9 94.65 Q 169.2 100.8 179.55 100.8 A 55.094 55.094 0 0 0 185.963 100.444 A 41.363 41.363 0 0 0 191.7 99.375 Q 197.1 97.95 202.05 95.7 L 205.2 107.25 A 61.155 61.155 0 0 1 198.698 109.689 A 77.795 77.795 0 0 1 193.05 111.225 A 58.371 58.371 0 0 1 185.412 112.454 A 78.038 78.038 0 0 1 177.9 112.8 A 42.477 42.477 0 0 1 166.281 111.292 A 31.662 31.662 0 0 1 151.275 102.075 A 35.282 35.282 0 0 1 143.467 87.765 Q 141.954 82.517 141.576 76.273 A 70.687 70.687 0 0 1 141.45 72 A 53.038 53.038 0 0 1 142.699 60.267 A 43.26 43.26 0 0 1 145.875 51.075 A 36.963 36.963 0 0 1 153.399 40.452 A 34.331 34.331 0 0 1 158.25 36.525 Q 166.2 31.2 176.7 31.2 A 42.83 42.83 0 0 1 184.905 31.944 Q 189.921 32.923 193.926 35.191 A 25.82 25.82 0 0 1 195.375 36.075 Q 202.8 40.95 206.55 49.2 A 42.278 42.278 0 0 1 210.189 63.996 A 50.152 50.152 0 0 1 210.3 67.35 A 112.805 112.805 0 0 1 209.864 77.395 A 103.961 103.961 0 0 1 209.85 77.55 Z M 637.35 77.55 L 582.75 77.55 A 36.132 36.132 0 0 0 584.459 85.087 Q 586.463 90.806 590.4 94.65 Q 596.7 100.8 607.05 100.8 A 55.094 55.094 0 0 0 613.463 100.444 A 41.363 41.363 0 0 0 619.2 99.375 Q 624.6 97.95 629.55 95.7 L 632.7 107.25 A 61.155 61.155 0 0 1 626.198 109.689 A 77.795 77.795 0 0 1 620.55 111.225 A 58.371 58.371 0 0 1 612.912 112.454 A 78.038 78.038 0 0 1 605.4 112.8 A 42.477 42.477 0 0 1 593.781 111.292 A 31.662 31.662 0 0 1 578.775 102.075 A 35.282 35.282 0 0 1 570.967 87.765 Q 569.454 82.517 569.076 76.273 A 70.687 70.687 0 0 1 568.95 72 A 53.038 53.038 0 0 1 570.199 60.267 A 43.26 43.26 0 0 1 573.375 51.075 A 36.963 36.963 0 0 1 580.899 40.452 A 34.331 34.331 0 0 1 585.75 36.525 Q 593.7 31.2 604.2 31.2 A 42.83 42.83 0 0 1 612.405 31.944 Q 617.421 32.923 621.426 35.191 A 25.82 25.82 0 0 1 622.875 36.075 Q 630.3 40.95 634.05 49.2 A 42.278 42.278 0 0 1 637.689 63.996 A 50.152 50.152 0 0 1 637.8 67.35 A 112.805 112.805 0 0 1 637.364 77.395 A 103.961 103.961 0 0 1 637.35 77.55 Z M 331.8 35.85 L 327.75 47.25 A 45.633 45.633 0 0 0 323.393 45.336 A 35.129 35.129 0 0 0 319.725 44.175 A 30.814 30.814 0 0 0 315.161 43.387 A 39.532 39.532 0 0 0 311.25 43.2 Q 300.75 43.2 293.625 50.775 A 25.103 25.103 0 0 0 287.676 61.806 Q 286.647 65.718 286.518 70.359 A 48.411 48.411 0 0 0 286.5 71.7 A 37.788 37.788 0 0 0 287.558 80.79 A 32.175 32.175 0 0 0 289.5 86.4 Q 292.5 93 297.825 96.9 A 20.195 20.195 0 0 0 308.579 100.739 A 25.359 25.359 0 0 0 310.35 100.8 Q 315.098 100.8 318.701 99.915 A 22.62 22.62 0 0 0 320.1 99.525 A 47.396 47.396 0 0 0 324.3 97.969 Q 326.458 97.057 328.764 95.869 A 75.435 75.435 0 0 0 328.8 95.85 L 333 107.25 Q 328.35 109.8 322.575 111.3 Q 316.8 112.8 309.45 112.8 A 40.205 40.205 0 0 1 298.892 111.466 A 33.112 33.112 0 0 1 290.025 107.625 Q 281.7 102.45 277.2 93.225 A 44.043 44.043 0 0 1 273.244 80.008 A 57.031 57.031 0 0 1 272.7 72 A 48.055 48.055 0 0 1 274.67 58.074 A 43.197 43.197 0 0 1 277.275 51.45 Q 281.85 42.15 290.4 36.675 A 34.601 34.601 0 0 1 304.902 31.544 A 44.413 44.413 0 0 1 310.5 31.2 A 61.963 61.963 0 0 1 315.974 31.43 Q 318.779 31.679 321.23 32.198 A 35.955 35.955 0 0 1 322.125 32.4 Q 327.15 33.6 331.8 35.85 Z M 227.55 86.55 L 227.55 0 L 241.05 0 L 241.05 85.2 A 30.966 30.966 0 0 0 241.332 89.532 Q 241.635 91.674 242.265 93.409 A 11.96 11.96 0 0 0 244.425 97.2 A 11.045 11.045 0 0 0 251.301 100.913 A 16.086 16.086 0 0 0 253.8 101.1 Q 256.65 101.1 259.425 100.425 Q 262.2 99.75 264.15 98.85 L 267.45 109.8 A 27.226 27.226 0 0 1 265.046 110.725 Q 263.135 111.366 260.775 111.9 A 35.725 35.725 0 0 1 256.042 112.628 A 45.77 45.77 0 0 1 252 112.8 Q 245.1 112.8 239.55 110.175 A 19.024 19.024 0 0 1 231.563 103.027 A 23.784 23.784 0 0 1 230.775 101.7 Q 227.55 95.85 227.55 86.55 Z M 367.142 110.791 A 40.821 40.821 0 0 0 380.1 112.8 A 46.089 46.089 0 0 0 383.512 112.675 A 37.886 37.886 0 0 0 399.975 107.7 Q 408.75 102.6 413.85 93.375 A 39.383 39.383 0 0 0 417.829 82.663 A 51.276 51.276 0 0 0 418.95 71.7 A 51.813 51.813 0 0 0 418.222 62.837 A 38.692 38.692 0 0 0 413.775 50.175 Q 408.6 41.1 399.825 36.15 A 37.273 37.273 0 0 0 392.863 33.109 A 41.607 41.607 0 0 0 380.1 31.2 A 46.987 46.987 0 0 0 377.73 31.259 A 39.254 39.254 0 0 0 360.3 36.15 Q 351.45 41.1 346.35 50.25 A 39.034 39.034 0 0 0 342.226 61.635 A 52.509 52.509 0 0 0 341.25 72 A 52.23 52.23 0 0 0 341.647 78.53 A 41.176 41.176 0 0 0 346.275 93.225 Q 351.3 102.45 360.15 107.625 A 36.839 36.839 0 0 0 367.142 110.791 Z M 672.75 79.95 L 661.65 79.95 L 659.7 39 L 659.7 1.65 L 674.7 1.65 L 674.7 39 L 672.75 79.95 Z M 380.1 100.8 A 28.112 28.112 0 0 0 387.939 99.764 A 21.001 21.001 0 0 0 398.55 92.775 A 28.204 28.204 0 0 0 404.279 80.64 A 40.657 40.657 0 0 0 405.15 72 A 32.064 32.064 0 0 0 403.313 61.071 A 30.021 30.021 0 0 0 401.85 57.675 A 28.796 28.796 0 0 0 395.592 49.322 A 27.256 27.256 0 0 0 392.925 47.175 Q 387.3 43.2 380.1 43.2 Q 368.25 43.2 361.65 51 A 26.817 26.817 0 0 0 356.139 62.06 Q 355.152 66.047 355.06 70.725 A 49.304 49.304 0 0 0 355.05 71.7 Q 355.05 79.5 358.35 86.175 A 29.156 29.156 0 0 0 363.645 93.735 A 26.441 26.441 0 0 0 367.275 96.825 Q 372.9 100.8 380.1 100.8 Z M 155.1 66.6 L 197.85 66.6 A 36.533 36.533 0 0 0 197.244 59.722 Q 196.5 55.846 194.844 52.81 A 18.633 18.633 0 0 0 192.15 49.05 Q 186.45 42.9 176.4 42.9 A 20.37 20.37 0 0 0 168.732 44.302 A 18.786 18.786 0 0 0 162 48.975 Q 156.3 55.05 155.1 66.6 Z M 582.6 66.6 L 625.35 66.6 A 36.533 36.533 0 0 0 624.744 59.722 Q 624 55.846 622.344 52.81 A 18.633 18.633 0 0 0 619.65 49.05 Q 613.95 42.9 603.9 42.9 A 20.37 20.37 0 0 0 596.232 44.302 A 18.786 18.786 0 0 0 589.5 48.975 Q 583.8 55.05 582.6 66.6 Z M 660.394 109.893 A 9.626 9.626 0 0 0 667.35 112.8 A 12.902 12.902 0 0 0 668.293 112.766 Q 672.015 112.493 674.55 110.025 A 9.046 9.046 0 0 0 676.939 106.092 A 11.541 11.541 0 0 0 677.4 102.75 A 9.338 9.338 0 0 0 676.532 98.743 A 10.432 10.432 0 0 0 674.325 95.7 Q 671.25 92.7 667.35 92.7 A 13.22 13.22 0 0 0 664.571 92.977 A 8.969 8.969 0 0 0 660 95.4 A 8.891 8.891 0 0 0 657.649 99.66 A 12.937 12.937 0 0 0 657.3 102.75 Q 657.3 106.8 660.3 109.8 A 12.475 12.475 0 0 0 660.394 109.893 Z" vector-effect="non-scaling-stroke"/></g></svg>