<?xml version="1.0" encoding="utf-8"?>
<!-- Generator: Adobe Illustrator 23.0.2, SVG Export Plug-In . SVG Version: 6.00 Build 0)  -->
<svg version="1.1" id="Layer_1" xmlns="http://www.w3.org/2000/svg" xmlns:xlink="http://www.w3.org/1999/xlink" x="0px" y="0px"
	 viewBox="0 0 1000 600" style="enable-background:new 0 0 1000 600;" xml:space="preserve">
<style type="text/css">
	.st0{fill:none;stroke:#231F20;stroke-width:14;stroke-miterlimit:10;}
</style>
<path class="st0" d="M43,50 L957,50" />
<path class="st0" d="M50,150 L950,150" />
<path class="st0" d="M50,250 L950,250" />
<path class="st0" d="M50,350 L950,350" />
<path class="st0" d="M50,450 L950,450" />
<path class="st0" d="M43,550 L957,550" />

<path class="st0" d="M50,50 L50,550" />
<path class="st0" d="M150,50 L150,550" />
<path class="st0" d="M250,50 L250,550" />
<path class="st0" d="M350,50 L350,550" />
<path class="st0" d="M450,50 L450,550" />
<path class="st0" d="M550,50 L550,550" />
<path class="st0" d="M650,50 L650,550" />
<path class="st0" d="M750,50 L750,550" />
<path class="st0" d="M850,50 L850,550" />
<path class="st0" d="M950,50 L950,550" />
  <!-- <rect x="50" y="50" width="900" height="500" style="fill:#231F20;stroke:none;stroke-width:0;stroke-miterlimit:10;"/> -->
</svg>
